<mxfile host="app.diagrams.net" modified="2024-05-20T16:47:02.980Z" agent="Mozilla/5.0 (Windows NT 10.0; Win64; x64; rv:126.0) Gecko/20100101 Firefox/126.0" version="24.4.4" etag="7uh5I2vUodfqU_XLhD4X" type="github">
  <diagram name="Page-1" id="O1wvSxYtaizagmVCoHYM">
    <mxGraphModel>
      <root>
        <mxCell id="0" />
        <mxCell id="1" parent="0" />
      </root>
    </mxGraphModel>
  </diagram>
</mxfile>
